<svg width="16" height="16" viewBox="0 0 16 16" fill="none" xmlns="http://www.w3.org/2000/svg">
<path d="M3.28125 5.71875C2.875 5.34375 2.875 4.6875 3.28125 4.3125L7.28125 0.3125C7.46875 0.125 7.71875 0 8 0C8.25 0 8.5 0.125 8.6875 0.3125L12.6875 4.3125C13.0938 4.6875 13.0938 5.34375 12.6875 5.71875C12.3125 6.125 11.6562 6.125 11.2812 5.71875L9 3.4375V11C9 11.5625 8.53125 12 8 12C7.4375 12 7 11.5625 7 11V3.4375L4.6875 5.71875C4.3125 6.125 3.65625 6.125 3.28125 5.71875ZM15 11C15.5312 11 16 11.4688 16 12V15C16 15.5625 15.5312 16 15 16H1C0.4375 16 0 15.5625 0 15V12C0 11.4688 0.4375 11 1 11H6C6 12.125 6.875 13 8 13C9.09375 13 10 12.125 10 11H15ZM13.5 14.25C13.9062 14.25 14.25 13.9375 14.25 13.5C14.25 13.0938 13.9062 12.75 13.5 12.75C13.0625 12.75 12.75 13.0938 12.75 13.5C12.75 13.9375 13.0625 14.25 13.5 14.25Z" fill="#CBCBCB"/>
</svg>
