<svg width="30" height="30" viewBox="0 0 30 30" fill="none" xmlns="http://www.w3.org/2000/svg">
<circle cx="15" cy="15" r="15" fill="#FEA013"/>
<circle cx="15" cy="15" r="13" fill="#F8F8F8"/>
<g clip-path="url(#clip0_1_556)">
<path d="M28.0961 14.9965C28.1053 14.6846 28.1876 10.226 25.549 7.32363C25.4318 7.06419 24.8757 6.01856 23.0811 4.74063C22.2855 4.12349 21.4404 3.57286 20.5545 3.09431L20.551 3.09256C20.439 3.03262 18.2506 1.875 15.5946 1.875C15.3929 1.875 15.1934 1.88681 14.9961 1.90038V1.89687C12.9709 1.85269 10.9593 2.37375 9.74694 2.92106C8.67156 3.40669 7.47763 4.22088 7.39144 4.28387C5.90219 5.11687 3.07813 8.45981 2.85456 10.2312C1.952 11.3849 1.19775 16.5671 2.85631 19.7237C4.01919 24.1105 8.39681 26.3059 8.74506 26.4743C8.95681 26.6095 11.3425 28.0843 14.2733 28.0843C14.3963 28.0843 15.1396 28.1254 15.4047 28.1254C18.5726 28.1254 23.267 25.8924 24.2496 24.1433C26.9494 22.1684 28.349 17.079 28.0961 14.9965ZM8.76913 21.5866C7.51394 19.5561 6.79863 16.9031 6.6455 16.2937C7.04275 15.6983 9.00231 12.809 10.1188 11.9397C10.751 12.0561 13.3909 12.5408 15.8807 12.9914C16.1935 13.8021 17.5659 17.3791 17.9588 18.7599C17.5257 19.2735 15.8243 21.2545 14.1491 22.8059C12.3706 22.8142 9.34575 21.7882 8.76913 21.5866ZM24.548 7.37875C24.5428 7.57562 24.4959 8.27562 24.1608 9.07931C23.4954 8.73937 21.8228 8.01137 19.5303 7.88844C19.1834 7.37612 17.8779 5.58981 15.8159 4.35081C16.0981 3.79869 16.491 3.12538 16.7207 2.92019C16.7951 2.89919 16.9106 2.87994 17.0864 2.87994C18.192 2.87994 20.1021 3.604 20.2684 3.66831C20.4447 3.7615 23.8782 5.61037 24.548 7.37875ZM6.15069 15.8803C4.65313 15.6248 3.76281 15.1593 3.49681 15.0018C2.93988 12.9818 3.38831 10.7987 3.45744 10.4859C4.00694 9.50325 5.57144 6.99856 6.6035 6.523C7.67319 6.30469 9.00713 6.57594 9.5505 6.7085C9.49931 7.41506 9.40088 9.38906 9.69313 11.4606C8.50925 12.4135 6.63544 15.1562 6.15069 15.8803ZM14.8622 2.54438C15.1982 2.56931 15.6913 2.64281 16.029 2.743C15.6921 3.191 15.3469 3.85512 15.1838 4.18325C14.4969 4.29569 11.8881 4.79444 9.84144 6.12138C9.42888 6.012 8.18288 5.72019 7.00294 5.82081C7.29519 5.25513 7.73181 4.83687 7.77863 4.794C7.94094 4.67762 11.0656 2.49144 14.8622 2.53869V2.54438ZM23.2167 19.2101C22.7048 19.1891 20.7326 19.0766 18.57 18.5687C18.1557 17.1241 16.7876 13.5619 16.4748 12.7517C17.4701 11.3331 18.4805 9.92511 19.5058 8.52806C21.9943 8.66456 23.7417 9.57238 24.0799 9.76181C25.5214 12.0801 25.8378 14.4479 25.8811 14.8434C25.1154 17.226 23.6013 18.8303 23.2167 19.2101ZM2.59906 13.4771C2.63581 14.0309 2.72463 14.6141 2.88519 15.1908C2.74084 15.5644 2.6407 15.9536 2.58681 16.3506C2.49544 15.3947 2.49955 14.4321 2.59906 13.4771ZM6.81831 23.6966C7.47806 23.0609 8.29138 22.4423 8.60681 22.2087C9.31994 22.4598 12.2486 23.4499 14.1154 23.4499C14.4334 23.8764 15.4734 25.2121 16.7483 26.2332C15.9546 27.0098 14.8084 27.3764 14.6058 27.4373C11.0503 27.5326 7.58744 25.5341 6.81831 23.6966ZM16.2084 27.432C16.6118 27.1971 17.0322 26.8878 17.38 26.4962C17.9474 26.4179 20.3826 25.9987 22.5832 24.3822C22.7284 24.3979 22.9678 24.4172 23.2351 24.4097C21.9147 25.7034 18.6929 27.1485 16.2084 27.432ZM22.9564 23.7675C23.7469 21.7078 23.7133 20.1546 23.6743 19.6585C24.1083 19.2332 25.5976 17.6464 26.424 15.2341C26.8694 15.3084 27.159 15.4218 27.2964 15.4852C27.3441 15.6602 27.4237 16.0644 27.3786 16.6774C27.0418 18.8837 25.8789 22.1899 23.8419 23.6516C23.6371 23.7561 23.2766 23.7789 22.9564 23.7675Z" fill="#222222"/>
</g>
<defs>
<clipPath id="clip0_1_556">
<rect width="28" height="28" fill="white" transform="translate(1 1)"/>
</clipPath>
</defs>
</svg>
