<svg width="20" height="17" viewBox="0 0 20 17" fill="none" xmlns="http://www.w3.org/2000/svg">
<path d="M18.7891 13.9102C19.3516 14.8945 18.6484 16.125 17.4883 16.125H2.47656C1.31641 16.125 0.613281 14.8945 1.17578 13.9102L8.69922 1.11328C9.26172 0.128906 10.7031 0.128906 11.3008 1.11328L18.7891 13.9102ZM9.15625 5.15625V9.65625C9.15625 10.1484 9.57812 10.5 10 10.5C10.457 10.5 10.8438 10.1484 10.8438 9.65625V5.15625C10.8438 4.69922 10.457 4.3125 10 4.3125C9.50781 4.3125 9.15625 4.69922 9.15625 5.15625ZM10 13.875C10.5977 13.875 11.0898 13.3828 11.0898 12.7852C11.0898 12.1875 10.5977 11.6953 10 11.6953C9.36719 11.6953 8.875 12.1875 8.875 12.7852C8.875 13.3828 9.36719 13.875 10 13.875Z" fill="#FEA013"/>
</svg>
